<svg xmlns="http://www.w3.org/2000/svg" viewBox="0 0 256 256">
  <defs>
    <filter id="soft_shadow" x="-20%" y="-20%" width="140%" height="145%">
      <feDropShadow dx="0" dy="8" stdDeviation="5" flood-color="#000000" flood-opacity="0.35"/>
    </filter>
    <mask id="helmet_cutouts">
      <rect width="256" height="256" fill="white"/>
      <path d="M45 128 C82 113 173 113 211 128 L207 148 C161 137 95 137 49 148 Z" fill="black"/>
      <circle cx="187" cy="101" r="7" fill="black"/>
      <circle cx="205" cy="116" r="7" fill="black"/>
      <circle cx="204" cy="140" r="7" fill="black"/>
      <circle cx="185" cy="155" r="7" fill="black"/>
      <circle cx="175" cy="128" r="7" fill="black"/>
    </mask>
  </defs>

  <g filter="url(#soft_shadow)">
    <path
      d="M128 47
         C178 55 214 91 222 141
         C230 190 193 229 130 232
         C69 235 31 198 36 146
         C41 92 78 56 128 47 Z"
      fill="#ffffff"
      mask="url(#helmet_cutouts)"
    />

    <path d="M128 47 C119 95 116 164 121 229" fill="none" stroke="#ffffff" stroke-width="8" stroke-linecap="round" opacity="0.36"/>
    <path d="M128 47 C92 83 72 136 75 218" fill="none" stroke="#ffffff" stroke-width="8" stroke-linecap="round" opacity="0.28"/>
    <path d="M129 47 C165 83 185 136 181 216" fill="none" stroke="#ffffff" stroke-width="8" stroke-linecap="round" opacity="0.28"/>
    <path d="M128 47 C109 72 99 99 96 123" fill="none" stroke="#ffffff" stroke-width="7" stroke-linecap="round" opacity="0.25"/>
    <path d="M128 47 C147 72 157 99 160 123" fill="none" stroke="#ffffff" stroke-width="7" stroke-linecap="round" opacity="0.25"/>

    <path d="M96 58 C116 44 140 44 160 58 C146 62 136 70 128 85 C120 70 110 62 96 58 Z" fill="#ffffff"/>
    <path d="M50 154 C95 140 161 140 206 154" fill="none" stroke="#ffffff" stroke-width="7" stroke-linecap="round" opacity="0.56"/>

    <circle cx="73" cy="110" r="5" fill="#ffffff" opacity="0.78"/>
    <circle cx="88" cy="157" r="5" fill="#ffffff" opacity="0.78"/>
    <circle cx="126" cy="162" r="5" fill="#ffffff" opacity="0.78"/>
    <circle cx="166" cy="160" r="5" fill="#ffffff" opacity="0.78"/>
    <circle cx="59" cy="138" r="5" fill="#ffffff" opacity="0.78"/>

    <path d="M72 82 C101 61 155 61 184 82" fill="none" stroke="#ffffff" stroke-width="8" stroke-linecap="round" opacity="0.3"/>
    <path d="M60 99 C95 78 162 78 197 99" fill="none" stroke="#ffffff" stroke-width="5" stroke-linecap="round" opacity="0.22"/>
  </g>
</svg>
